<svg width="45" height="45" viewBox="0 0 45 45" fill="none" xmlns="http://www.w3.org/2000/svg">
<rect x="0.5" y="0.5" width="44" height="44" rx="22" stroke="#6E7454"/>
<path d="M16.0156 14.5916C16.0156 14.242 16.1323 13.9067 16.34 13.6595C16.5477 13.4123 16.8293 13.2734 17.123 13.2734H28.1973C28.491 13.2734 28.7726 13.4123 28.9803 13.6595C29.188 13.9067 29.3047 14.242 29.3047 14.5916C29.3047 14.9412 29.188 15.2765 28.9803 15.5237C28.7726 15.7709 28.491 15.9098 28.1973 15.9098H17.123C16.8293 15.9098 16.5477 15.7709 16.34 15.5237C16.1323 15.2765 16.0156 14.9412 16.0156 14.5916ZM16.0156 19.8643C16.0156 19.5147 16.1323 19.1795 16.34 18.9323C16.5477 18.685 16.8293 18.5462 17.123 18.5462H28.1973C28.491 18.5462 28.7726 18.685 28.9803 18.9323C29.188 19.1795 29.3047 19.5147 29.3047 19.8643C29.3047 20.214 29.188 20.5492 28.9803 20.7964C28.7726 21.0436 28.491 21.1825 28.1973 21.1825H17.123C16.8293 21.1825 16.5477 21.0436 16.34 20.7964C16.1323 20.5492 16.0156 20.214 16.0156 19.8643ZM17.123 23.8189C16.8293 23.8189 16.5477 23.9578 16.34 24.205C16.1323 24.4522 16.0156 24.7875 16.0156 25.1371C16.0156 25.4867 16.1323 25.822 16.34 26.0692C16.5477 26.3164 16.8293 26.4553 17.123 26.4553H28.1973C28.491 26.4553 28.7726 26.3164 28.9803 26.0692C29.188 25.822 29.3047 25.4867 29.3047 25.1371C29.3047 24.7875 29.188 24.4522 28.9803 24.205C28.7726 23.9578 28.491 23.8189 28.1973 23.8189H17.123ZM16.0156 30.4098C16.0156 30.0602 16.1323 29.7249 16.34 29.4777C16.5477 29.2305 16.8293 29.0916 17.123 29.0916H21.5527C21.8464 29.0916 22.1281 29.2305 22.3358 29.4777C22.5435 29.7249 22.6602 30.0602 22.6602 30.4098C22.6602 30.7594 22.5435 31.0947 22.3358 31.3419C22.1281 31.5891 21.8464 31.728 21.5527 31.728H17.123C16.8293 31.728 16.5477 31.5891 16.34 31.3419C16.1323 31.0947 16.0156 30.7594 16.0156 30.4098Z" fill="#555A40"/>
<path fill-rule="evenodd" clip-rule="evenodd" d="M11.5859 11.9545C11.5859 10.9057 11.936 9.89988 12.559 9.15826C13.1821 8.41664 14.0271 8 14.9082 8H30.4121C31.2932 8 32.1383 8.41664 32.7613 9.15826C33.3844 9.89988 33.7344 10.9057 33.7344 11.9545V33.0455C33.7344 34.0943 33.3844 35.1001 32.7613 35.8417C32.1383 36.5834 31.2932 37 30.4121 37H14.9082C14.0271 37 13.1821 36.5834 12.559 35.8417C11.936 35.1001 11.5859 34.0943 11.5859 33.0455V11.9545ZM14.9082 10.6364H30.4121C30.7058 10.6364 30.9875 10.7752 31.1952 11.0225C31.4029 11.2697 31.5195 11.6049 31.5195 11.9545V33.0455C31.5195 33.3951 31.4029 33.7303 31.1952 33.9776C30.9875 34.2248 30.7058 34.3636 30.4121 34.3636H14.9082C14.6145 34.3636 14.3328 34.2248 14.1251 33.9776C13.9175 33.7303 13.8008 33.3951 13.8008 33.0455V11.9545C13.8008 11.6049 13.9175 11.2697 14.1251 11.0225C14.3328 10.7752 14.6145 10.6364 14.9082 10.6364Z" fill="#555A40"/>
</svg>
